<?xml version="1.0" encoding="utf-8" ?>
<svg baseProfile="tiny" height="100%" version="1.2" width="100%" xmlns="http://www.w3.org/2000/svg" xmlns:ev="http://www.w3.org/2001/xml-events" xmlns:xlink="http://www.w3.org/1999/xlink"><defs /><polyline fill="white" points="92.0,151.9969 91.0,151.9969 90.0,151.9969 89.0,151.9969 88.0031,151.0 88.0,150.9969 87.0031,150.0 87.0,149.9969 86.0031,149.0 86.0031,148.0 86.0031,147.0 86.0031,146.0 86.0031,145.0 86.0031,144.0 86.0031,143.0 86.0031,142.0 86.0031,141.0 86.0031,140.0 86.0031,139.0 86.0031,138.0 86.0031,137.0 86.0,136.9969 85.0,136.9969 84.9969,137.0 84.0,137.9969 83.0,137.9969 82.9969,138.0 82.0,138.9969 81.9969,139.0 81.0,139.9969 80.0,139.9969 79.0031,139.0 79.0031,138.0 79.0031,137.0 80.0,136.0031 80.0031,136.0 81.0,135.0031 81.0031,135.0 82.0,134.0031 82.0031,134.0 83.0,133.0031 83.0031,133.0 84.0,132.0031 84.0031,132.0 85.0,131.0031 85.0031,131.0 86.0,130.0031 86.0031,130.0 86.0031,129.0 86.0031,128.0 86.0031,127.0 86.0031,126.0 86.0031,125.0 86.0031,124.0 86.0031,123.0 86.0031,122.0 86.0031,121.0 86.0031,120.0 86.0031,119.0 86.0031,118.0 86.0,117.9969 85.0031,117.0 85.0,116.9969 84.9969,117.0 84.9969,118.0 84.0,118.9969 83.0,118.9969 82.9969,119.0 82.0,119.9969 81.9969,120.0 81.0,120.9969 80.9969,121.0 80.0,121.9969 79.9969,122.0 79.0,122.9969 78.9969,123.0 78.0,123.9969 77.9969,124.0 77.0,124.9969 76.9969,125.0 76.0,125.9969 75.9969,126.0 75.0,126.9969 74.0,126.9969 73.9969,127.0 73.0,127.9969 72.0031,127.0 72.0,126.9969 71.0,126.9969 70.0031,126.0 70.0031,125.0 70.0031,124.0 71.0,123.0031 72.0,123.0031 72.0031,123.0 72.0031,122.0 73.0,121.0031 74.0,121.0031 74.0031,121.0 74.0031,120.0 75.0,119.0031 75.0031,119.0 76.0,118.0031 77.0,118.0031 77.0031,118.0 77.0031,117.0 78.0,116.0031 78.0031,116.0 79.0,115.0031 79.0031,115.0 80.0,114.0031 80.0031,114.0 81.0,113.0031 81.0031,113.0 82.0,112.0031 82.0031,112.0 83.0,111.0031 83.0031,111.0 84.0,110.0031 84.0031,110.0 85.0,109.0031 85.0031,109.0 86.0,108.0031 86.0031,108.0 86.0031,107.0 86.0031,106.0 86.0031,105.0 86.0031,104.0 86.0031,103.0 86.0031,102.0 86.0031,101.0 86.0031,100.0 86.0031,99.0 86.0031,98.0 86.0031,97.0 86.0031,96.0 86.0031,95.0 86.0031,94.0 86.0031,93.0 86.0031,92.0 86.0031,91.0 86.0031,90.0 86.0031,89.0 86.0031,88.0 86.0031,87.0 86.0,86.9969 85.0,86.9969 84.0,86.9969 83.9969,87.0 83.0,87.9969 82.9969,88.0 82.0,88.9969 81.0,88.9969 80.9969,89.0 80.0,89.9969 79.0,89.9969 78.9969,90.0 78.0,90.9969 77.9969,91.0 77.0,91.9969 76.0,91.9969 75.9969,92.0 75.0,92.9969 74.0,92.9969 73.9969,93.0 73.0,93.9969 72.0,93.9969 71.9969,94.0 71.0,94.9969 70.0,94.9969 69.9969,95.0 69.0,95.9969 68.9969,96.0 68.0,96.9969 67.0,96.9969 66.9969,97.0 66.9969,98.0 66.9969,99.0 66.9969,100.0 66.0,100.9969 65.9969,101.0 65.0,101.9969 64.9969,102.0 64.9969,103.0 64.9969,104.0 64.9969,105.0 64.9969,106.0 64.0,106.9969 63.9969,107.0 63.9969,108.0 63.9969,109.0 63.9969,110.0 63.9969,111.0 63.0,111.9969 62.9969,112.0 62.0,112.9969 61.9969,113.0 61.9969,114.0 61.9969,115.0 61.9969,116.0 61.9969,117.0 61.0,117.9969 60.9969,118.0 60.0,118.9969 59.0,118.9969 58.0,118.9969 57.0031,118.0 57.0,117.9969 56.0031,117.0 57.0,116.0031 57.0031,116.0 57.0031,115.0 57.0031,114.0 57.0031,113.0 57.0031,112.0 58.0,111.0031 58.0031,111.0 58.0031,110.0 58.0031,109.0 59.0,108.0031 59.0031,108.0 59.0031,107.0 59.0031,106.0 59.0031,105.0 59.0031,104.0 60.0,103.0031 60.0031,103.0 60.0031,102.0 60.0,101.9969 59.0,101.9969 58.9969,102.0 58.0,102.9969 57.0,102.9969 56.0,102.9969 55.9969,103.0 55.0,103.9969 54.9969,104.0 54.0,104.9969 53.0,104.9969 52.9969,105.0 52.0,105.9969 51.0,105.9969 50.9969,106.0 50.0,106.9969 49.9969,107.0 49.0,107.9969 48.9969,108.0 48.0,108.9969 47.9969,109.0 47.9969,110.0 47.9969,111.0 47.9969,112.0 47.9969,113.0 47.0,113.9969 46.9969,114.0 46.0,114.9969 45.9969,115.0 45.9969,116.0 45.9969,117.0 45.9969,118.0 45.0,118.9969 44.0,118.9969 43.0,118.9969 42.0031,118.0 42.0031,117.0 42.0031,116.0 43.0,115.0031 43.0031,115.0 43.0031,114.0 43.0031,113.0 43.0031,112.0 43.0,111.9969 42.0,111.9969 41.0,111.9969 40.9969,112.0 40.0,112.9969 39.0,112.9969 38.9969,113.0 38.0,113.9969 37.0,113.9969 36.9969,114.0 36.0,114.9969 35.9969,115.0 35.0,115.9969 34.0,115.9969 33.9969,116.0 33.0,116.9969 32.0,116.9969 31.9969,117.0 31.0,117.9969 30.0,117.9969 29.0,117.9969 28.0031,117.0 28.0,116.9969 27.0031,116.0 27.0031,115.0 27.0,114.9969 26.0031,114.0 26.0031,113.0 26.0031,112.0 27.0,111.0031 27.0031,111.0 28.0,110.0031 29.0,110.0031 29.0031,110.0 30.0,109.0031 30.0031,109.0 31.0,108.0031 32.0,108.0031 32.0031,108.0 33.0,107.0031 33.0031,107.0 34.0,106.0031 35.0,106.0031 35.0031,106.0 36.0,105.0031 36.0031,105.0 37.0,104.0031 38.0,104.0031 38.0031,104.0 38.0031,103.0 38.0,102.9969 37.0031,102.0 37.0,101.9969 36.0,101.9969 35.0,101.9969 34.0,101.9969 33.0031,101.0 33.0031,100.0 33.0031,99.0 34.0,98.0031 35.0,98.0031 36.0,98.0031 37.0,98.0031 38.0,98.0031 39.0,98.0031 39.9969,99.0 40.0,99.0031 40.9969,100.0 41.0,100.0031 42.0,100.0031 43.0,100.0031 44.0,100.0031 45.0,100.0031 46.0,100.0031 46.0031,100.0 46.0031,99.0 47.0,98.0031 48.0,98.0031 49.0,98.0031 49.0031,98.0 50.0,97.0031 51.0,97.0031 51.0031,97.0 52.0,96.0031 52.0031,96.0 53.0,95.0031 54.0,95.0031 54.0031,95.0 55.0,94.0031 55.0031,94.0 55.0,93.9969 54.0031,93.0 54.0,92.9969 53.0031,92.0 53.0,91.9969 52.0,91.9969 51.0,91.9969 50.0,91.9969 49.0,91.9969 48.0031,91.0 48.0,90.9969 47.0,90.9969 46.0,90.9969 45.0031,90.0 45.0,89.9969 44.0,89.9969 43.0,89.9969 42.0,89.9969 41.0031,89.0 41.0,88.9969 40.0,88.9969 39.0031,88.0 39.0031,87.0 39.0031,86.0 40.0,85.0031 40.0031,85.0 41.0,84.0031 42.0,84.0031 43.0,84.0031 44.0,84.0031 44.9969,85.0 45.0,85.0031 46.0,85.0031 47.0,85.0031 48.0,85.0031 48.9969,86.0 49.0,86.0031 50.0,86.0031 50.9969,87.0 51.0,87.0031 52.0,87.0031 53.0,87.0031 54.0,87.0031 55.0,87.0031 56.0,87.0031 56.9969,88.0 57.0,88.0031 57.9969,89.0 58.0,89.0031 59.0,89.0031 60.0,89.0031 61.0,89.0031 62.0,89.0031 63.0,89.0031 64.0,89.0031 65.0,89.0031 65.0031,89.0 66.0,88.0031 66.0031,88.0 67.0,87.0031 68.0,87.0031 68.0031,87.0 69.0,86.0031 69.0031,86.0 70.0,85.0031 71.0,85.0031 71.0031,85.0 72.0,84.0031 73.0,84.0031 73.0031,84.0 74.0,83.0031 74.0031,83.0 75.0,82.0031 76.0,82.0031 77.0,82.0031 77.0031,82.0 78.0,81.0031 78.0031,81.0 79.0,80.0031 79.0031,80.0 80.0,79.0031 81.0,79.0031 81.0031,79.0 81.0031,78.0 81.0,77.9969 80.0031,77.0 80.0,76.9969 79.0,76.9969 78.0031,76.0 78.0,75.9969 77.0,75.9969 76.0031,75.0 76.0,74.9969 75.0,74.9969 74.0031,74.0 74.0,73.9969 73.0031,73.0 73.0,72.9969 72.0,72.9969 71.0031,72.0 71.0,71.9969 70.0,71.9969 69.0031,71.0 69.0,70.9969 68.0031,70.0 68.0,69.9969 67.0,69.9969 66.0031,69.0 66.0,68.9969 65.0,68.9969 64.0031,68.0 64.0,67.9969 63.0,67.9969 62.0,67.9969 61.0,67.9969 60.0,67.9969 59.9969,68.0 59.0,68.9969 58.0,68.9969 57.0,68.9969 56.9969,69.0 56.0,69.9969 55.0,69.9969 54.0,69.9969 53.9969,70.0 53.0,70.9969 52.0,70.9969 51.0,70.9969 50.0,70.9969 49.0,70.9969 48.9969,71.0 48.0,71.9969 47.0,71.9969 46.0,71.9969 45.9969,72.0 45.0,72.9969 44.0,72.9969 43.0,72.9969 42.0,72.9969 41.0,72.9969 40.0,72.9969 39.0031,72.0 39.0,71.9969 38.0031,71.0 39.0,70.0031 39.0031,70.0 40.0,69.0031 40.0031,69.0 41.0,68.0031 42.0,68.0031 43.0,68.0031 44.0,68.0031 44.0031,68.0 45.0,67.0031 45.0031,67.0 46.0,66.0031 47.0,66.0031 48.0,66.0031 49.0,66.0031 50.0,66.0031 50.0031,66.0 51.0,65.0031 51.0031,65.0 52.0,64.0031 53.0,64.0031 54.0,64.0031 55.0,64.0031 55.0031,64.0 55.0,63.9969 54.0031,63.0 54.0031,62.0 54.0,61.9969 53.0,61.9969 52.0031,61.0 52.0,60.9969 51.0,60.9969 50.0031,60.0 50.0,59.9969 49.0,59.9969 48.0031,59.0 48.0,58.9969 47.0031,58.0 47.0,57.9969 46.0,57.9969 45.0031,57.0 45.0,56.9969 44.0,56.9969 43.0,56.9969 42.9969,57.0 42.0,57.9969 41.0,57.9969 40.0,57.9969 39.9969,58.0 39.0,58.9969 38.0,58.9969 37.0,58.9969 36.0,58.9969 35.9969,59.0 35.0,59.9969 34.0,59.9969 33.0031,59.0 33.0,58.9969 32.0031,58.0 32.0031,57.0 33.0,56.0031 34.0,56.0031 34.0031,56.0 35.0,55.0031 36.0,55.0031 37.0,55.0031 37.0031,55.0 38.0,54.0031 38.0031,54.0 38.0031,53.0 38.0,52.9969 37.0031,52.0 37.0,51.9969 36.0,51.9969 35.0031,51.0 35.0,50.9969 34.0,50.9969 33.0031,50.0 33.0,49.9969 32.0,49.9969 31.0031,49.0 31.0,48.9969 30.0,48.9969 29.0031,48.0 29.0,47.9969 28.0031,47.0 28.0,46.9969 27.0031,46.0 27.0031,45.0 27.0,44.9969 26.0031,44.0 26.0031,43.0 27.0,42.0031 27.0031,42.0 27.0031,41.0 28.0,40.0031 29.0,40.0031 30.0,40.0031 31.0,40.0031 32.0,40.0031 33.0,40.0031 33.9969,41.0 34.0,41.0031 34.9969,42.0 35.0,42.0031 36.0,42.0031 37.0,42.0031 37.9969,43.0 38.0,43.0031 38.9969,44.0 39.0,44.0031 40.0,44.0031 41.0,44.0031 41.9969,45.0 42.0,45.0031 43.0,45.0031 43.0031,45.0 43.0031,44.0 43.0031,43.0 43.0031,42.0 43.0031,41.0 43.0031,40.0 44.0,39.0031 45.0,39.0031 45.9969,40.0 45.9969,41.0 45.9969,42.0 46.0,42.0031 46.9969,43.0 47.0,43.0031 47.9969,44.0 47.9969,45.0 47.9969,46.0 47.9969,47.0 47.9969,48.0 48.0,48.0031 48.9969,49.0 48.9969,50.0 49.0,50.0031 50.0,50.0031 50.9969,51.0 51.0,51.0031 51.9969,52.0 52.0,52.0031 53.0,52.0031 54.0,52.0031 54.9969,53.0 55.0,53.0031 56.0,53.0031 57.0,53.0031 57.9969,54.0 58.0,54.0031 58.9969,55.0 59.0,55.0031 59.0031,55.0 60.0,54.0031 60.0031,54.0 60.0031,53.0 60.0,52.9969 59.0031,52.0 59.0031,51.0 59.0031,50.0 59.0031,49.0 59.0,48.9969 58.0031,48.0 58.0031,47.0 58.0031,46.0 58.0,45.9969 57.0031,45.0 57.0031,44.0 57.0031,43.0 57.0031,42.0 57.0031,41.0 57.0,40.9969 56.0031,40.0 57.0,39.0031 57.0031,39.0 57.0031,38.0 58.0,37.0031 59.0,37.0031 59.9969,38.0 60.0,38.0031 61.0,38.0031 61.9969,39.0 61.9969,40.0 61.9969,41.0 61.9969,42.0 61.9969,43.0 62.0,43.0031 62.9969,44.0 63.0,44.0031 63.9969,45.0 63.9969,46.0 63.9969,47.0 63.9969,48.0 63.9969,49.0 64.0,49.0031 64.9969,50.0 64.9969,51.0 64.9969,52.0 64.9969,53.0 64.9969,54.0 64.9969,55.0 65.0,55.0031 65.9969,56.0 66.0,56.0031 66.9969,57.0 66.9969,58.0 66.9969,59.0 66.9969,60.0 67.0,60.0031 68.0,60.0031 68.9969,61.0 69.0,61.0031 69.9969,62.0 70.0,62.0031 71.0,62.0031 71.9969,63.0 72.0,63.0031 73.0,63.0031 73.9969,64.0 74.0,64.0031 75.0,64.0031 75.9969,65.0 76.0,65.0031 76.9969,66.0 77.0,66.0031 78.0,66.0031 78.9969,67.0 79.0,67.0031 79.9969,68.0 80.0,68.0031 81.0,68.0031 81.9969,69.0 82.0,69.0031 83.0,69.0031 84.0,69.0031 84.9969,70.0 85.0,70.0031 86.0,70.0031 86.0031,70.0 86.0031,69.0 86.0031,68.0 86.0031,67.0 86.0031,66.0 86.0031,65.0 86.0031,64.0 86.0031,63.0 86.0031,62.0 86.0031,61.0 86.0031,60.0 86.0031,59.0 86.0031,58.0 86.0031,57.0 86.0031,56.0 86.0031,55.0 86.0031,54.0 86.0031,53.0 86.0031,52.0 86.0031,51.0 86.0031,50.0 86.0031,49.0 86.0,48.9969 85.0031,48.0 85.0,47.9969 84.0031,47.0 84.0,46.9969 83.0031,46.0 83.0,45.9969 82.0031,45.0 82.0,44.9969 81.0031,44.0 81.0,43.9969 80.0031,43.0 80.0,42.9969 79.0031,42.0 79.0,41.9969 78.0031,41.0 78.0,40.9969 77.0031,40.0 77.0,39.9969 76.0031,39.0 76.0,38.9969 75.0031,38.0 75.0,37.9969 74.0031,37.0 74.0,36.9969 73.0031,36.0 73.0,35.9969 72.0031,35.0 72.0,34.9969 71.0031,34.0 71.0,33.9969 70.0031,33.0 70.0031,32.0 71.0,31.0031 71.0031,31.0 72.0,30.0031 72.0031,30.0 73.0,29.0031 74.0,29.0031 74.9969,30.0 75.0,30.0031 75.9969,31.0 76.0,31.0031 76.9969,32.0 77.0,32.0031 77.9969,33.0 78.0,33.0031 78.9969,34.0 79.0,34.0031 79.9969,35.0 80.0,35.0031 80.9969,36.0 81.0,36.0031 81.9969,37.0 82.0,37.0031 82.9969,38.0 83.0,38.0031 84.0,38.0031 84.9969,39.0 84.9969,40.0 85.0,40.0031 85.0031,40.0 86.0,39.0031 86.0031,39.0 86.0031,38.0 86.0031,37.0 86.0031,36.0 86.0031,35.0 86.0031,34.0 86.0031,33.0 86.0031,32.0 86.0031,31.0 86.0031,30.0 86.0031,29.0 86.0031,28.0 86.0031,27.0 86.0,26.9969 85.0031,26.0 85.0,25.9969 84.0031,25.0 84.0,24.9969 83.0031,24.0 83.0,23.9969 82.0031,23.0 82.0,22.9969 81.0,22.9969 80.0031,22.0 80.0031,21.0 80.0,20.9969 79.0031,20.0 79.0031,19.0 79.0031,18.0 80.0,17.0031 81.0,17.0031 81.9969,18.0 82.0,18.0031 83.0,18.0031 83.9969,19.0 84.0,19.0031 84.9969,20.0 85.0,20.0031 86.0,20.0031 86.0031,20.0 86.0031,19.0 86.0031,18.0 86.0031,17.0 86.0031,16.0 86.0031,15.0 86.0031,14.0 86.0031,13.0 86.0031,12.0 86.0031,11.0 86.0031,10.0 86.0031,9.0 86.0031,8.0 87.0,7.0031 87.0031,7.0 88.0,6.0031 88.0031,6.0 89.0,5.0031 90.0,5.0031 91.0,5.0031 92.0,5.0031 93.0,5.0031 93.9969,6.0 93.9969,7.0 93.9969,8.0 93.9969,9.0 93.9969,10.0 93.9969,11.0 93.9969,12.0 93.9969,13.0 93.9969,14.0 93.9969,15.0 93.9969,16.0 93.9969,17.0 93.9969,18.0 93.9969,19.0 94.0,19.0031 94.9969,20.0 94.9969,21.0 95.0,21.0031 95.0031,21.0 96.0,20.0031 97.0,20.0031 97.0031,20.0 98.0,19.0031 98.0031,19.0 99.0,18.0031 100.0,18.0031 100.0031,18.0 101.0,17.0031 101.9969,18.0 101.9969,19.0 101.9969,20.0 101.0,20.9969 100.9969,21.0 100.9969,22.0 100.0,22.9969 99.0,22.9969 98.9969,23.0 98.9969,24.0 98.0,24.9969 97.9969,25.0 97.0,25.9969 96.0,25.9969 95.9969,26.0 95.9969,27.0 95.0,27.9969 94.9969,28.0 94.0,28.9969 93.9969,29.0 93.9969,30.0 93.9969,31.0 93.9969,32.0 93.9969,33.0 93.9969,34.0 93.9969,35.0 93.9969,36.0 93.9969,37.0 93.9969,38.0 93.9969,39.0 94.0,39.0031 94.9969,40.0 95.0,40.0031 95.0031,40.0 96.0,39.0031 97.0,39.0031 97.0031,39.0 98.0,38.0031 98.0031,38.0 99.0,37.0031 99.0031,37.0 100.0,36.0031 100.0031,36.0 101.0,35.0031 101.0031,35.0 102.0,34.0031 102.0031,34.0 103.0,33.0031 103.0031,33.0 104.0,32.0031 104.0031,32.0 105.0,31.0031 106.0,31.0031 106.0031,31.0 107.0,30.0031 107.0031,30.0 108.0,29.0031 109.0,29.0031 109.9969,30.0 109.9969,31.0 109.9969,32.0 109.9969,33.0 109.0,33.9969 108.9969,34.0 108.9969,35.0 108.0,35.9969 107.0,35.9969 106.9969,36.0 106.9969,37.0 106.0,37.9969 105.9969,38.0 105.0,38.9969 104.0,38.9969 103.9969,39.0 103.9969,40.0 103.0,40.9969 102.9969,41.0 102.0,41.9969 101.0,41.9969 100.9969,42.0 100.9969,43.0 100.0,43.9969 99.0,43.9969 98.9969,44.0 98.9969,45.0 98.0,45.9969 97.9969,46.0 97.0,46.9969 96.0,46.9969 95.9969,47.0 95.9969,48.0 95.0,48.9969 94.9969,49.0 94.0,49.9969 93.9969,50.0 93.9969,51.0 93.9969,52.0 93.9969,53.0 93.9969,54.0 93.9969,55.0 93.9969,56.0 93.9969,57.0 93.9969,58.0 93.9969,59.0 93.9969,60.0 93.9969,61.0 93.9969,62.0 93.9969,63.0 93.9969,64.0 93.9969,65.0 93.9969,66.0 93.9969,67.0 93.9969,68.0 93.9969,69.0 94.0,69.0031 94.9969,70.0 95.0,70.0031 96.0,70.0031 97.0,70.0031 97.0031,70.0 98.0,69.0031 99.0,69.0031 99.0031,69.0 100.0,68.0031 101.0,68.0031 101.0031,68.0 102.0,67.0031 102.0031,67.0 103.0,66.0031 104.0,66.0031 104.0031,66.0 105.0,65.0031 106.0,65.0031 106.0031,65.0 107.0,64.0031 107.0031,64.0 108.0,63.0031 109.0,63.0031 110.0,63.0031 110.0031,63.0 111.0,62.0031 111.0031,62.0 112.0,61.0031 112.0031,61.0 113.0,60.0031 113.0031,60.0 114.0,59.0031 114.0031,59.0 115.0,58.0031 115.0031,58.0 115.0031,57.0 115.0031,56.0 115.0031,55.0 116.0,54.0031 116.0031,54.0 116.0031,53.0 116.0031,52.0 116.0031,51.0 116.0031,50.0 117.0,49.0031 117.0031,49.0 117.0031,48.0 118.0,47.0031 118.0031,47.0 118.0031,46.0 118.0031,45.0 118.0031,44.0 118.0031,43.0 119.0,42.0031 119.0031,42.0 119.0031,41.0 119.0031,40.0 120.0,39.0031 120.0031,39.0 121.0,38.0031 121.0031,38.0 122.0,37.0031 123.0,37.0031 124.0,37.0031 124.9969,38.0 124.9969,39.0 124.9969,40.0 124.9969,41.0 124.9969,42.0 124.9969,43.0 124.0,43.9969 123.9969,44.0 123.0,44.9969 122.9969,45.0 122.9969,46.0 122.9969,47.0 122.9969,48.0 122.9969,49.0 122.9969,50.0 122.0,50.9969 121.9969,51.0 121.9969,52.0 121.0,52.9969 120.9969,53.0 120.9969,54.0 121.0,54.0031 121.9969,55.0 122.0,55.0031 123.0,55.0031 123.0031,55.0 124.0,54.0031 125.0,54.0031 125.0031,54.0 126.0,53.0031 126.0031,53.0 127.0,52.0031 128.0,52.0031 129.0,52.0031 129.0031,52.0 130.0,51.0031 130.0031,51.0 131.0,50.0031 132.0,50.0031 132.0031,50.0 132.0031,49.0 133.0,48.0031 133.0031,48.0 133.0031,47.0 134.0,46.0031 134.0031,46.0 134.0031,45.0 134.0031,44.0 134.0031,43.0 134.0031,42.0 135.0,41.0031 135.0031,41.0 136.0,40.0031 136.0031,40.0 137.0,39.0031 138.0,39.0031 138.9969,40.0 138.9969,41.0 138.9969,42.0 138.9969,43.0 138.0,43.9969 137.9969,44.0 137.9969,45.0 138.0,45.0031 139.0,45.0031 140.0,45.0031 141.0,45.0031 141.0031,45.0 142.0,44.0031 143.0,44.0031 143.0031,44.0 144.0,43.0031 144.0031,43.0 145.0,42.0031 146.0,42.0031 146.0031,42.0 147.0,41.0031 148.0,41.0031 148.0031,41.0 149.0,40.0031 150.0,40.0031 151.0,40.0031 152.0,40.0031 153.0,40.0031 153.9969,41.0 154.0,41.0031 154.9969,42.0 154.9969,43.0 154.9969,44.0 154.9969,45.0 154.0,45.9969 153.9969,46.0 153.0,46.9969 152.9969,47.0 152.0,47.9969 151.9969,48.0 151.0,48.9969 150.0,48.9969 149.9969,49.0 149.0,49.9969 148.0,49.9969 147.9969,50.0 147.0,50.9969 146.9969,51.0 146.0,51.9969 145.0,51.9969 144.9969,52.0 144.0,52.9969 143.9969,53.0 143.0,53.9969 142.9969,54.0 142.9969,55.0 143.0,55.0031 144.0,55.0031 145.0,55.0031 146.0,55.0031 147.0,55.0031 147.9969,56.0 148.0,56.0031 148.9969,57.0 148.9969,58.0 148.9969,59.0 148.0,59.9969 147.0,59.9969 146.0031,59.0 146.0,58.9969 145.0,58.9969 144.0,58.9969 143.0031,58.0 143.0,57.9969 142.0,57.9969 141.0,57.9969 140.0,57.9969 139.0031,57.0 139.0,56.9969 138.0,56.9969 137.0,56.9969 136.9969,57.0 136.0,57.9969 135.0,57.9969 134.0,57.9969 133.9969,58.0 133.0,58.9969 132.9969,59.0 132.0,59.9969 131.0,59.9969 130.9969,60.0 130.0,60.9969 129.0,60.9969 128.9969,61.0 128.0,61.9969 127.9969,62.0 127.0,62.9969 126.9969,63.0 126.0,63.9969 125.9969,64.0 126.0,64.0031 126.9969,65.0 127.0,65.0031 128.0,65.0031 129.0,65.0031 130.0,65.0031 131.0,65.0031 131.9969,66.0 132.0,66.0031 133.0,66.0031 134.0,66.0031 135.0,66.0031 136.0,66.0031 136.9969,67.0 137.0,67.0031 137.9969,68.0 138.0,68.0031 139.0,68.0031 140.0,68.0031 141.0,68.0031 141.9969,69.0 141.9969,70.0 141.9969,71.0 141.9969,72.0 141.0,72.9969 140.0,72.9969 139.0,72.9969 138.0,72.9969 137.0,72.9969 136.0,72.9969 135.0031,72.0 135.0,71.9969 134.0,71.9969 133.0031,71.0 133.0,70.9969 132.0,70.9969 131.0,70.9969 130.0,70.9969 129.0,70.9969 128.0031,70.0 128.0,69.9969 127.0,69.9969 126.0,69.9969 125.0,69.9969 124.0031,69.0 124.0,68.9969 123.0,68.9969 122.0031,68.0 122.0,67.9969 121.0,67.9969 120.0,67.9969 119.0,67.9969 118.0,67.9969 117.9969,68.0 117.0,68.9969 116.0,68.9969 115.0,68.9969 114.9969,69.0 114.0,69.9969 113.9969,70.0 113.0,70.9969 112.0,70.9969 111.9969,71.0 111.0,71.9969 110.9969,72.0 110.0,72.9969 109.0,72.9969 108.9969,73.0 108.0,73.9969 107.0,73.9969 106.0,73.9969 105.9969,74.0 105.0,74.9969 104.9969,75.0 104.0,75.9969 103.0,75.9969 102.9969,76.0 102.0,76.9969 101.0,76.9969 100.9969,77.0 100.9969,78.0 100.9969,79.0 101.0,79.0031 101.9969,80.0 102.0,80.0031 102.9969,81.0 103.0,81.0031 104.0,81.0031 104.9969,82.0 105.0,82.0031 106.0,82.0031 106.9969,83.0 107.0,83.0031 107.9969,84.0 108.0,84.0031 109.0,84.0031 109.9969,85.0 110.0,85.0031 111.0,85.0031 111.9969,86.0 112.0,86.0031 112.9969,87.0 113.0,87.0031 114.0,87.0031 114.9969,88.0 115.0,88.0031 116.0,88.0031 116.9969,89.0 117.0,89.0031 118.0,89.0031 119.0,89.0031 120.0,89.0031 121.0,89.0031 122.0,89.0031 123.0,89.0031 123.0031,89.0 124.0,88.0031 125.0,88.0031 125.0031,88.0 126.0,87.0031 127.0,87.0031 128.0,87.0031 129.0,87.0031 130.0,87.0031 130.0031,87.0 131.0,86.0031 131.0031,86.0 132.0,85.0031 133.0,85.0031 134.0,85.0031 135.0,85.0031 136.0,85.0031 137.0,85.0031 137.0031,85.0 138.0,84.0031 139.0,84.0031 140.0,84.0031 141.0,84.0031 141.9969,85.0 141.9969,86.0 141.9969,87.0 141.9969,88.0 141.0,88.9969 140.0,88.9969 139.9969,89.0 139.0,89.9969 138.0,89.9969 137.0,89.9969 136.9969,90.0 136.0,90.9969 135.0,90.9969 134.0,90.9969 133.9969,91.0 133.0,91.9969 132.0,91.9969 131.0,91.9969 130.0,91.9969 129.9969,92.0 129.0,92.9969 128.0,92.9969 127.0,92.9969 126.9969,93.0 126.9969,94.0 126.9969,95.0 127.0,95.0031 128.0,95.0031 128.9969,96.0 129.0,96.0031 129.9969,97.0 130.0,97.0031 131.0,97.0031 131.9969,98.0 132.0,98.0031 133.0,98.0031 133.9969,99.0 134.0,99.0031 134.9969,100.0 135.0,100.0031 136.0,100.0031 137.0,100.0031 138.0,100.0031 139.0,100.0031 140.0,100.0031 141.0,100.0031 141.0031,100.0 142.0,99.0031 142.0031,99.0 143.0,98.0031 144.0,98.0031 145.0,98.0031 146.0,98.0031 147.0,98.0031 148.0,98.0031 148.9969,99.0 148.9969,100.0 148.0,100.9969 147.9969,101.0 147.0,101.9969 146.0,101.9969 145.0,101.9969 144.9969,102.0 144.0,102.9969 143.9969,103.0 143.9969,104.0 144.0,104.0031 144.9969,105.0 145.0,105.0031 145.9969,106.0 146.0,106.0031 147.0,106.0031 148.0,106.0031 148.9969,107.0 149.0,107.0031 149.9969,108.0 150.0,108.0031 151.0,108.0031 151.9969,109.0 152.0,109.0031 152.9969,110.0 153.0,110.0031 153.9969,111.0 154.0,111.0031 154.9969,112.0 154.9969,113.0 154.9969,114.0 154.9969,115.0 154.0,115.9969 153.9969,116.0 153.0,116.9969 152.0,116.9969 151.9969,117.0 151.0,117.9969 150.0,117.9969 149.0031,117.0 149.0,116.9969 148.0031,116.0 148.0,115.9969 147.0,115.9969 146.0,115.9969 145.0031,115.0 145.0,114.9969 144.0031,114.0 144.0,113.9969 143.0,113.9969 142.0031,113.0 142.0,112.9969 141.0,112.9969 140.0031,112.0 140.0,111.9969 139.0,111.9969 138.0,111.9969 137.9969,112.0 138.0,112.0031 138.9969,113.0 138.9969,114.0 138.9969,115.0 138.9969,116.0 138.9969,117.0 138.9969,118.0 138.0,118.9969 137.0,118.9969 136.0031,118.0 136.0,117.9969 135.0031,117.0 135.0031,116.0 135.0,115.9969 134.0031,115.0 134.0031,114.0 134.0031,113.0 134.0031,112.0 134.0031,111.0 134.0,110.9969 133.0031,110.0 133.0031,109.0 133.0,108.9969 132.0031,108.0 132.0031,107.0 132.0,106.9969 131.0,106.9969 130.0031,106.0 130.0,105.9969 129.0031,105.0 129.0,104.9969 128.0,104.9969 127.0,104.9969 126.0031,104.0 126.0,103.9969 125.0031,103.0 125.0,102.9969 124.0,102.9969 123.0031,102.0 123.0,101.9969 122.0,101.9969 121.9969,102.0 121.9969,103.0 121.9969,104.0 121.9969,105.0 121.9969,106.0 122.0,106.0031 122.9969,107.0 122.9969,108.0 122.9969,109.0 122.9969,110.0 122.9969,111.0 123.0,111.0031 123.9969,112.0 123.9969,113.0 124.0,113.0031 124.9969,114.0 124.9969,115.0 124.9969,116.0 124.9969,117.0 124.9969,118.0 124.0,118.9969 123.0,118.9969 122.0,118.9969 121.0,118.9969 120.0031,118.0 120.0031,117.0 120.0,116.9969 119.0031,116.0 119.0031,115.0 119.0031,114.0 119.0,113.9969 118.0031,113.0 118.0031,112.0 118.0031,111.0 118.0031,110.0 118.0,109.9969 117.0031,109.0 117.0031,108.0 117.0031,107.0 117.0,106.9969 116.0031,106.0 116.0031,105.0 116.0031,104.0 116.0031,103.0 116.0,102.9969 115.0031,102.0 115.0031,101.0 115.0031,100.0 115.0031,99.0 115.0,98.9969 114.0031,98.0 114.0031,97.0 114.0,96.9969 113.0031,96.0 113.0,95.9969 112.0,95.9969 111.0031,95.0 111.0,94.9969 110.0,94.9969 109.0031,94.0 109.0,93.9969 108.0,93.9969 107.0031,93.0 107.0,92.9969 106.0031,92.0 106.0,91.9969 105.0,91.9969 104.0031,91.0 104.0,90.9969 103.0,90.9969 102.0031,90.0 102.0,89.9969 101.0031,89.0 101.0,88.9969 100.0,88.9969 99.0,88.9969 98.0031,88.0 98.0,87.9969 97.0031,87.0 97.0,86.9969 96.0,86.9969 95.9969,87.0 95.0,87.9969 94.9969,88.0 94.9969,89.0 94.9969,90.0 94.0,90.9969 93.9969,91.0 93.9969,92.0 93.9969,93.0 93.9969,94.0 93.9969,95.0 93.9969,96.0 93.9969,97.0 93.9969,98.0 93.9969,99.0 93.9969,100.0 93.9969,101.0 93.9969,102.0 93.9969,103.0 93.9969,104.0 93.9969,105.0 93.9969,106.0 93.9969,107.0 94.0,107.0031 94.9969,108.0 95.0,108.0031 95.9969,109.0 96.0,109.0031 96.9969,110.0 97.0,110.0031 97.9969,111.0 98.0,111.0031 98.9969,112.0 99.0,112.0031 99.9969,113.0 100.0,113.0031 100.9969,114.0 101.0,114.0031 101.9969,115.0 102.0,115.0031 102.9969,116.0 103.0,116.0031 103.9969,117.0 104.0,117.0031 104.9969,118.0 105.0,118.0031 105.9969,119.0 106.0,119.0031 106.9969,120.0 107.0,120.0031 107.9969,121.0 108.0,121.0031 108.9969,122.0 109.0,122.0031 109.9969,123.0 109.9969,124.0 109.9969,125.0 109.9969,126.0 109.0,126.9969 108.0,126.9969 107.0,126.9969 106.0,126.9969 105.0031,126.0 105.0,125.9969 104.0031,125.0 104.0,124.9969 103.0031,124.0 103.0,123.9969 102.0031,123.0 102.0,122.9969 101.0031,122.0 101.0,121.9969 100.0031,121.0 100.0,120.9969 99.0031,120.0 99.0,119.9969 98.0031,119.0 98.0,118.9969 97.0031,118.0 97.0,117.9969 96.0,117.9969 95.0,117.9969 94.9969,118.0 94.9969,119.0 94.9969,120.0 94.9969,121.0 94.0,121.9969 93.9969,122.0 93.9969,123.0 93.9969,124.0 93.9969,125.0 93.9969,126.0 93.9969,127.0 93.9969,128.0 94.0,128.0031 94.9969,129.0 95.0,129.0031 95.9969,130.0 96.0,130.0031 96.9969,131.0 97.0,131.0031 97.9969,132.0 98.0,132.0031 98.9969,133.0 99.0,133.0031 99.9969,134.0 100.0,134.0031 100.9969,135.0 101.0,135.0031 101.9969,136.0 101.9969,137.0 101.9969,138.0 101.9969,139.0 101.0,139.9969 100.0,139.9969 99.0031,139.0 99.0,138.9969 98.0031,138.0 98.0,137.9969 97.0031,137.0 97.0,136.9969 96.0,136.9969 95.0,136.9969 94.9969,137.0 94.9969,138.0 94.9969,139.0 94.9969,140.0 94.9969,141.0 94.0,141.9969 93.9969,142.0 93.9969,143.0 93.9969,144.0 93.9969,145.0 93.9969,146.0 93.9969,147.0 93.9969,148.0 93.9969,149.0 93.9969,150.0 93.0,150.9969 92.9969,151.0 92.0,151.9969" stroke="black" stroke-width="1" /></svg>